<svg width="1381" height="1381" viewBox="0 0 1381 1381" fill="none" xmlns="http://www.w3.org/2000/svg">
<path fill-rule="evenodd" clip-rule="evenodd" d="M1381 690.5C1381 1071.85 1071.85 1381 690.5 1381C309.147 1381 0 1071.85 0 690.5C0 309.147 309.147 0 690.5 0C1071.85 0 1381 309.147 1381 690.5ZM1275 690.5C1275 1013.31 1013.31 1275 690.5 1275C367.689 1275 106 1013.31 106 690.5C106 367.689 367.689 106 690.5 106C1013.31 106 1275 367.689 1275 690.5ZM690.5 1189C965.814 1189 1189 965.814 1189 690.5C1189 415.186 965.814 192 690.5 192C415.186 192 192 415.186 192 690.5C192 965.814 415.186 1189 690.5 1189ZM955.329 533.93L1076.57 655.174C1094.48 673.107 1094.48 702.122 1076.57 720.024C1067.61 728.983 1055.87 733.447 1044.13 733.447C1032.41 733.447 1020.69 728.988 1011.7 720.024L708.524 416.838C698.701 407.044 681.296 407.044 671.421 416.867L368.295 720.024C350.397 737.95 321.327 737.95 303.423 720.024C285.527 702.12 285.527 673.105 303.423 655.174L606.578 352.026C651.109 307.415 728.712 307.336 773.345 351.945L863.621 442.224V393.873C863.621 368.549 884.142 348.026 909.445 348.026C934.807 348.026 955.329 368.549 955.329 393.873V533.93ZM705.926 503.897C697.119 495.094 682.857 495.094 674.076 503.897L407.42 770.474C403.21 774.682 400.823 780.428 400.823 786.424V980.855C400.823 1026.48 437.817 1063.47 483.44 1063.47H615.461V859.014H764.512V1063.47H896.535C942.156 1063.47 979.149 1026.48 979.149 980.856V786.424C979.149 780.428 976.784 774.682 972.553 770.474L705.926 503.897Z" fill="white"/>
</svg>
