<svg width="1449" height="1077" viewBox="0 0 1449 1077" fill="none" xmlns="http://www.w3.org/2000/svg">
<path fill-rule="evenodd" clip-rule="evenodd" d="M892.578 1077C768.288 1077 653.517 1037.54 560.906 970.86C556.791 968.774 552.713 966.474 548.684 963.954L70.6852 664.94C-22.6685 606.543 -22.6104 470.55 70.7931 412.232L548.792 113.786C551.473 112.112 554.175 110.536 556.895 109.055C650.194 40.6095 766.487 0 892.578 0C1199.81 0 1448.87 241.095 1448.87 538.5C1448.87 835.905 1199.81 1077 892.578 1077ZM893.818 1039C812.269 1039 735.281 1019.48 667.27 984.851C661.99 982.714 656.787 980.024 651.72 976.75L649.859 975.548C631.422 965.222 613.706 953.763 596.805 941.263L91.402 614.662C36.5043 579.186 36.539 498.868 91.4674 463.439L589.762 142.042C674.012 77.4124 779.429 39 893.818 39C1169.96 39 1393.82 262.858 1393.82 539C1393.82 815.142 1169.96 1039 893.818 1039Z" fill="#434A54"/>
<path fill-rule="evenodd" clip-rule="evenodd" d="M667.27 984.851C735.281 1019.48 812.269 1039 893.818 1039C1169.96 1039 1393.82 815.142 1393.82 539C1393.82 262.858 1169.96 39 893.818 39C779.429 39 674.012 77.4124 589.762 142.042L91.4674 463.439C36.5391 498.868 36.5043 579.186 91.402 614.662L596.805 941.263C613.706 953.763 631.422 965.222 649.859 975.548L651.72 976.75C656.787 980.024 661.99 982.714 667.27 984.851Z" fill="#EDF0F0"/>
<path fill-rule="evenodd" clip-rule="evenodd" d="M889.993 154.207C675.096 161.069 502.993 337.436 502.993 554C502.993 770.564 675.096 946.931 889.993 953.793C885.677 953.931 881.343 954 876.993 954C656.079 954 476.993 774.914 476.993 554C476.993 333.086 656.079 154 876.993 154C881.343 154 885.677 154.069 889.993 154.207Z" fill="#B2B2B2"/>
<g clip-path="url(#clip0_9_35)">
<path d="M1271.54 398.301C1251.4 350.67 1222.57 307.884 1185.85 271.153C1149.11 234.434 1106.31 205.589 1058.7 185.448C1009.39 164.586 956.995 154.001 902.992 154.001C849 154.001 796.609 164.585 747.292 185.448C699.661 205.589 656.875 234.435 620.143 271.153C583.425 307.884 554.58 350.67 534.437 398.301C513.577 447.618 502.993 500.01 502.993 554.001C502.993 608.002 513.576 660.396 534.439 709.711C554.58 757.321 583.426 800.116 620.145 836.836C656.875 873.58 699.661 902.411 747.294 922.552C796.611 943.403 849.001 953.998 902.993 953.998C956.997 953.998 1009.39 943.403 1058.7 922.552C1106.31 902.409 1149.11 873.579 1185.85 836.836C1222.57 800.116 1251.4 757.319 1271.55 709.711C1292.4 660.396 1302.99 608.002 1302.99 554.001C1302.99 500.01 1292.4 447.618 1271.54 398.301Z" fill="#ED5564"/>
<path d="M503.152 565.231C504.519 615.254 515.016 663.815 534.439 709.712C554.58 757.321 583.426 800.116 620.145 836.836C656.875 873.58 699.661 902.411 747.294 922.552C796.611 943.403 849.001 953.998 902.993 953.998C956.997 953.998 1009.39 943.403 1058.7 922.552C1106.31 902.409 1149.11 873.579 1185.85 836.836C1222.57 800.116 1251.4 757.319 1271.55 709.712C1290.98 663.815 1301.48 615.254 1302.85 565.231H503.152Z" fill="#E6E9ED"/>
<path d="M1301.09 593.405C1302.36 580.367 1302.99 567.232 1302.99 554.001C1302.99 539.132 1302.18 524.386 1300.6 509.798C1280.72 512.862 1252.18 516.854 1216.22 520.82C1147.96 528.352 1038.24 537.336 902.992 537.336C767.75 537.336 658.022 528.352 589.772 520.82C553.799 516.853 525.27 512.862 505.397 509.798C503.799 524.386 502.993 539.133 502.993 554.001C502.993 567.232 503.627 580.369 504.897 593.405C569.79 603.171 712.758 620.65 902.992 620.65C1093.23 620.65 1236.19 603.171 1301.09 593.405Z" fill="#434A54"/>
<path d="M986.341 570.662C986.341 616.693 949.01 653.999 902.992 653.999C856.972 653.999 819.655 616.693 819.655 570.662C819.655 524.641 856.972 487.336 902.992 487.336C949.01 487.338 986.341 524.642 986.341 570.662Z" fill="#E6E9ED"/>
<path d="M902.992 420.664C820.277 420.664 752.992 487.961 752.992 570.664C752.992 653.366 820.279 720.649 902.992 720.649C985.705 720.649 1052.99 653.365 1052.99 570.664C1052.99 487.961 985.707 420.664 902.992 420.664ZM902.992 637.35C866.238 637.35 836.329 607.418 836.329 570.664C836.329 533.908 866.236 504.001 902.992 504.001C939.76 504.001 969.641 533.908 969.641 570.664C969.641 607.416 939.76 637.35 902.992 637.35Z" fill="#434A54"/>
<path opacity="0.2" d="M1271.54 398.301C1251.4 350.67 1222.57 307.884 1185.85 271.153C1149.11 234.434 1106.31 205.589 1058.7 185.448C1009.39 164.586 956.995 154.001 902.992 154.001C897.414 154.001 891.859 154.123 886.329 154.344C934.438 156.297 981.116 166.735 1025.35 185.448C1073.01 205.589 1115.78 234.435 1152.5 271.153C1189.22 307.884 1218.08 350.67 1238.22 398.301C1259.09 447.618 1269.64 500.01 1269.64 554.002C1269.64 608.004 1259.09 660.398 1238.22 709.713C1218.08 757.322 1189.22 800.117 1152.5 836.837C1115.78 873.582 1073.01 902.412 1025.35 922.554C981.116 941.256 934.437 951.704 886.329 953.658C891.859 953.878 897.412 954 902.992 954C956.995 954 1009.39 943.404 1058.7 922.554C1106.31 902.411 1149.11 873.58 1185.85 836.837C1222.57 800.117 1251.4 757.321 1271.54 709.713C1292.4 660.398 1302.99 608.004 1302.99 554.002C1302.99 500.01 1292.4 447.618 1271.54 398.301Z" fill="white"/>
<path opacity="0.1" d="M534.439 709.711C554.58 757.321 583.426 800.116 620.145 836.836C656.875 873.58 699.661 902.411 747.294 922.552C796.611 943.403 849.001 953.998 902.993 953.998C908.572 953.998 914.127 953.876 919.656 953.656C871.547 951.703 824.857 941.253 780.618 922.552C732.987 902.409 690.214 873.579 653.483 836.836C616.752 800.116 587.919 757.319 567.765 709.711C546.902 660.398 536.331 608.004 536.331 554.001C536.331 500.008 546.902 447.616 567.763 398.299C587.917 350.668 616.751 307.881 653.481 271.164C690.212 234.434 732.985 205.587 780.616 185.446C824.855 166.733 871.546 156.295 919.655 154.342C914.125 154.123 908.57 154.001 902.992 154.001C849 154.001 796.609 164.585 747.292 185.448C699.661 205.589 656.875 234.435 620.143 271.166C583.425 307.884 554.58 350.67 534.437 398.301C513.577 447.618 502.993 500.01 502.993 554.001C502.993 608.002 513.577 660.398 534.439 709.711Z" fill="black"/>
</g>
<defs>
<clipPath id="clip0_9_35">
<rect width="800" height="800" fill="white" transform="translate(502.993 154)"/>
</clipPath>
</defs>
</svg>
