<svg width="1449" height="1077" viewBox="0 0 1449 1077" fill="none" xmlns="http://www.w3.org/2000/svg">
<path fill-rule="evenodd" clip-rule="evenodd" d="M556.291 1077C680.582 1077 795.352 1037.54 887.963 970.86C892.079 968.774 896.156 966.474 900.185 963.954L1378.18 664.94C1471.54 606.543 1471.48 470.55 1378.08 412.232L900.077 113.786C897.397 112.112 894.695 110.536 891.974 109.055C798.675 40.6095 682.382 0 556.291 0C249.06 0 -0.000105388 241.095 -0.000105388 538.5C-0.000105388 835.905 249.06 1077 556.291 1077ZM555.052 1039C636.6 1039 713.589 1019.48 781.599 984.851C786.88 982.714 792.083 980.024 797.149 976.75L799.01 975.548C817.447 965.222 835.163 953.763 852.064 941.263L1357.47 614.662C1412.37 579.186 1412.33 498.868 1357.4 463.439L859.107 142.042C774.857 77.4124 669.44 39 555.052 39C278.909 39 55.0515 262.858 55.0515 539C55.0515 815.142 278.909 1039 555.052 1039Z" fill="#414345"/>
<path fill-rule="evenodd" clip-rule="evenodd" d="M778.547 984.851C710.537 1019.48 633.549 1039 552 1039C275.858 1039 52.0001 815.142 52.0001 539C52.0001 262.858 275.858 39 552 39C666.389 39 771.806 77.4124 856.056 142.042L1354.35 463.439C1409.28 498.868 1409.31 579.186 1354.42 614.662L849.012 941.264C832.112 953.763 814.396 965.222 795.96 975.547L794.098 976.75C789.031 980.025 783.828 982.714 778.547 984.851Z" fill="#EDF0F0"/>
<path fill-rule="evenodd" clip-rule="evenodd" d="M551 139.207C336.103 146.069 164 322.436 164 539C164 755.564 336.103 931.931 551 938.793C546.684 938.931 542.35 939 538 939C317.086 939 138 759.914 138 539C138 318.086 317.086 139 538 139C542.35 139 546.684 139.069 551 139.207Z" fill="#B2B2B2"/>
<g clip-path="url(#clip0_9_34)">
<path d="M932.552 383.301C912.41 335.67 883.579 292.884 846.859 256.153C810.114 219.434 767.319 190.589 719.71 170.448C670.396 149.586 618.002 139.002 563.999 139.002C510.007 139.002 457.617 149.585 408.299 170.448C360.668 190.589 317.883 219.435 281.15 256.153C244.432 292.884 215.588 335.67 195.445 383.301C174.585 432.618 164 485.01 164 539.001C164 593.002 174.583 645.396 195.446 694.712C215.588 742.321 244.434 785.116 281.152 821.836C317.883 858.58 360.668 887.411 408.301 907.552C457.618 928.403 510.009 938.998 564.001 938.998C618.004 938.998 670.398 928.403 719.712 907.552C767.321 887.409 810.116 858.579 846.861 821.836C883.581 785.116 912.411 742.319 932.554 694.712C953.404 645.396 964 593.002 964 539.001C963.999 485.01 953.403 432.618 932.552 383.301Z" fill="#ED5564"/>
<path d="M164.16 550.231C165.527 600.254 176.024 648.815 195.446 694.712C215.588 742.321 244.434 785.116 281.152 821.836C317.883 858.58 360.668 887.411 408.301 907.552C457.618 928.403 510.009 938.998 564.001 938.998C618.004 938.998 670.398 928.403 719.712 907.552C767.321 887.409 810.116 858.579 846.861 821.836C883.581 785.116 912.411 742.319 932.554 694.712C951.989 648.815 962.486 600.254 963.853 550.231H164.16Z" fill="#E6E9ED"/>
<path d="M962.094 578.405C963.363 565.367 963.999 552.232 963.999 539.001C963.999 524.132 963.192 509.386 961.606 494.798C941.732 497.862 913.192 501.854 877.232 505.82C808.967 513.352 699.252 522.336 563.999 522.336C428.758 522.336 319.03 513.352 250.779 505.82C214.806 501.853 186.277 497.862 166.405 494.798C164.806 509.386 164 524.133 164 539.001C164 552.232 164.635 565.369 165.905 578.405C230.797 588.171 373.766 605.65 563.999 605.65C754.233 605.65 897.2 588.171 962.094 578.405Z" fill="#434A54"/>
<path d="M647.349 555.662C647.349 601.693 610.018 638.999 563.999 638.999C517.979 638.999 480.663 601.693 480.663 555.662C480.663 509.641 517.979 472.336 563.999 472.336C610.018 472.338 647.349 509.642 647.349 555.662Z" fill="#E6E9ED"/>
<path d="M563.999 405.664C481.284 405.664 414 472.961 414 555.664C414 638.366 481.286 705.649 563.999 705.649C646.713 705.649 713.998 638.365 713.998 555.664C713.998 472.961 646.714 405.664 563.999 405.664ZM563.999 622.35C527.245 622.35 497.336 592.418 497.336 555.664C497.336 518.908 527.244 489.001 563.999 489.001C600.768 489.001 630.648 518.908 630.648 555.664C630.648 592.416 600.768 622.35 563.999 622.35Z" fill="#434A54"/>
<path opacity="0.2" d="M932.552 383.301C912.41 335.67 883.579 292.884 846.859 256.153C810.114 219.434 767.319 190.589 719.71 170.448C670.396 149.586 618.003 139.002 563.999 139.002C558.421 139.002 552.866 139.123 547.336 139.344C595.446 141.297 642.124 151.735 686.362 170.448C734.017 190.589 776.792 219.435 813.508 256.153C850.228 292.884 879.087 335.67 899.225 383.301C920.099 432.618 930.646 485.01 930.646 539.002C930.646 593.004 920.099 645.398 899.225 694.713C879.085 742.322 850.228 785.117 813.508 821.837C776.792 858.582 734.017 887.413 686.362 907.554C642.124 926.256 595.444 936.705 547.336 938.658C552.866 938.878 558.42 939 563.999 939C618.003 939 670.396 928.404 719.71 907.554C767.319 887.411 810.114 858.58 846.859 821.837C883.579 785.117 912.41 742.321 932.552 694.713C953.403 645.398 963.999 593.004 963.999 539.002C963.999 485.01 953.403 432.618 932.552 383.301Z" fill="white"/>
<path opacity="0.1" d="M195.446 694.712C215.588 742.321 244.434 785.116 281.152 821.836C317.883 858.58 360.668 887.411 408.301 907.552C457.618 928.403 510.009 938.998 564.001 938.998C569.579 938.998 575.134 938.877 580.664 938.656C532.555 936.703 485.864 926.253 441.625 907.552C393.994 887.409 351.221 858.579 314.49 821.836C277.76 785.116 248.926 742.319 228.772 694.712C207.909 645.398 197.339 593.004 197.339 539.001C197.339 485.009 207.909 432.616 228.771 383.299C248.924 335.668 277.758 292.881 314.489 256.164C351.22 219.434 393.993 190.587 441.624 170.446C485.863 151.733 532.553 141.295 580.662 139.342C575.132 139.123 569.578 139.002 563.999 139.002C510.007 139.002 457.617 149.585 408.299 170.448C360.668 190.589 317.883 219.435 281.15 256.166C244.432 292.884 215.588 335.67 195.445 383.301C174.585 432.618 164 485.01 164 539.001C164 593.002 174.585 645.398 195.446 694.712Z" fill="black"/>
</g>
<defs>
<clipPath id="clip0_9_34">
<rect width="800" height="800" fill="white" transform="translate(164 139)"/>
</clipPath>
</defs>
</svg>
