<svg width="320" height="320" viewBox="0 0 980 979" fill="none" xmlns="http://www.w3.org/2000/svg">
<g clip-path="url(#clip0_8_3)">
<path d="M509 978.94H471C469.51 977.94 467.79 978.2 466.15 978.12C422.88 976.21 380.49 969.03 339.51 955.04C188.36 903.47 84.72 802.6 28.39 653.46C13.49 613.98 5.23001 572.81 1.76001 530.7C1.21001 523.94 1.7 517.08 0 510.42V467.42C0.394975 465.483 0.692033 463.527 0.890015 461.56C2.6607 425.527 8.65504 389.826 18.75 355.19C50.0833 247.93 110.72 161.08 200.66 94.64C268.06 44.9 343.73 15.0901 426.76 4.09006C461.137 -0.436882 495.903 -1.22482 530.45 1.74005C568.05 4.91005 604.92 11.67 640.64 23.74C779.673 70.7067 879.34 161.087 939.64 294.88C961.51 343.39 973.81 394.6 978.24 447.68C978.82 454.6 978.34 461.63 980.04 468.45V510.45C979.74 512.55 979.26 514.65 979.16 516.76C977.371 552.774 971.394 588.458 961.35 623.09C932.47 722.883 877.583 805.447 796.69 870.78C718.897 933.367 630.103 968.827 530.31 977.16C523.21 977.76 516 977.14 509 978.94ZM177.72 520.69H81.72C74.38 520.69 74.37 520.69 75.21 528.19C76.8693 544.549 79.413 560.806 82.83 576.89C104.763 675.87 155.763 756.497 235.83 818.77C301.16 869.57 375.63 897.84 458.31 904.19C506.56 907.9 554.31 904.26 600.65 890.52C736.87 850.19 830.52 763.27 881.65 630.89C894.57 597.42 901.53 562.41 904.98 526.72C905.31 523.26 905.81 520.55 900.36 520.56C835.027 520.76 769.693 520.76 704.36 520.56C700.94 520.56 699.66 521.73 699.18 524.87C698.47 529.46 697.65 534.04 696.55 538.55C669.47 649.55 561.55 718.79 449.12 697.23C363.18 680.75 295.54 611.65 280.97 525.38C280.39 521.94 279.14 520.51 275.24 520.53C242.71 520.77 210.21 520.69 177.72 520.69ZM343.09 489.37C343.13 570.01 409.26 636.09 490 636.09C570.74 636.09 636.87 570.09 636.94 489.43C637.01 408.77 570.91 342.82 490 342.78C409.09 342.74 343.05 408.75 343.09 489.37Z" fill="#868686" fill-opacity="0.22"/>
</g>
<defs>
<clipPath id="clip0_8_3">
<rect width="980" height="978.94" fill="white"/>
</clipPath>
</defs>
</svg>
