<svg width="1772" height="1532" viewBox="0 0 1772 1532" fill="none" xmlns="http://www.w3.org/2000/svg">
<path fill-rule="evenodd" clip-rule="evenodd" d="M1231.69 151.985C914.775 177.344 665.5 442.561 665.5 766C665.5 1089.31 914.578 1354.45 1231.31 1379.98L1079.7 1531.59L4.63206e-05 765.797L1079.7 0L1231.69 151.985Z" fill="white"/>
<g clip-path="url(#clip0_24_62)">
<path d="M1262.5 1255.94H1300.5C1301.99 1254.94 1303.71 1255.2 1305.35 1255.12C1348.62 1253.21 1391.01 1246.03 1431.99 1232.04C1583.14 1180.47 1686.78 1079.6 1743.11 930.46C1758.01 890.98 1766.27 849.81 1769.74 807.7C1770.29 800.94 1769.8 794.08 1771.5 787.42V744.42C1771.11 742.483 1770.81 740.527 1770.61 738.56C1768.84 702.527 1762.84 666.826 1752.75 632.19C1721.42 524.93 1660.78 438.08 1570.84 371.64C1503.44 321.9 1427.77 292.09 1344.74 281.09C1310.36 276.563 1275.6 275.775 1241.05 278.74C1203.45 281.91 1166.58 288.67 1130.86 300.74C991.827 347.707 892.16 438.087 831.86 571.88C809.99 620.39 797.69 671.6 793.26 724.68C792.68 731.6 793.16 738.63 791.46 745.45V787.45C791.76 789.55 792.24 791.65 792.34 793.76C794.129 829.774 800.106 865.458 810.15 900.09C839.03 999.883 893.917 1082.45 974.81 1147.78C1052.6 1210.37 1141.4 1245.83 1241.19 1254.16C1248.29 1254.76 1255.5 1254.14 1262.5 1255.94ZM1593.78 797.69H1689.78C1697.12 797.69 1697.13 797.69 1696.29 805.19C1694.63 821.549 1692.09 837.806 1688.67 853.89C1666.74 952.87 1615.74 1033.5 1535.67 1095.77C1470.34 1146.57 1395.87 1174.84 1313.19 1181.19C1264.94 1184.9 1217.19 1181.26 1170.85 1167.52C1034.63 1127.19 940.98 1040.27 889.85 907.89C876.93 874.42 869.97 839.41 866.52 803.72C866.19 800.26 865.69 797.55 871.14 797.56C936.473 797.76 1001.81 797.76 1067.14 797.56C1070.56 797.56 1071.84 798.73 1072.32 801.87C1073.03 806.46 1073.85 811.04 1074.95 815.55C1102.03 926.55 1209.95 995.79 1322.38 974.23C1408.32 957.75 1475.96 888.65 1490.53 802.38C1491.11 798.94 1492.36 797.51 1496.26 797.53C1528.79 797.77 1561.29 797.69 1593.78 797.69ZM1428.41 766.37C1428.37 847.01 1362.24 913.09 1281.5 913.09C1200.76 913.09 1134.63 847.09 1134.56 766.43C1134.49 685.77 1200.59 619.82 1281.5 619.78C1362.41 619.74 1428.45 685.75 1428.41 766.37Z" fill="white"/>
</g>
<defs>
<clipPath id="clip0_24_62">
<rect width="980" height="978.94" fill="white" transform="matrix(-1 0 0 1 1771.5 277)"/>
</clipPath>
</defs>
</svg>
