<svg width="1386" height="1030" viewBox="0 0 1386 1030" fill="none" xmlns="http://www.w3.org/2000/svg">
<path fill-rule="evenodd" clip-rule="evenodd" d="M768.548 960.851C700.537 995.477 623.549 1015 542 1015C265.858 1015 42 791.142 42 515C42 238.858 265.858 15 542 15C656.389 15 761.806 53.4124 846.055 118.042L1344.35 439.439C1399.28 474.868 1399.31 555.186 1344.42 590.662L839.012 917.263C822.112 929.763 804.396 941.222 785.959 951.548L784.098 952.75C779.031 956.024 773.828 958.714 768.548 960.851Z" fill="#EDF0F0"/>
<path fill-rule="evenodd" clip-rule="evenodd" d="M843.68 116.23C844.473 116.832 845.265 117.436 846.055 118.042L1344.35 439.439C1399.28 474.868 1399.31 555.186 1344.42 590.662L839.012 917.263C838.86 917.376 838.709 917.488 838.557 917.6L1344.66 590.543C1399.56 555.067 1399.53 474.749 1344.6 439.321L843.68 116.23ZM804.711 940.502C798.548 944.316 792.296 947.999 785.959 951.548L784.098 952.75C779.031 956.024 773.828 958.714 768.548 960.851C700.537 995.477 623.549 1015 542 1015C265.858 1015 42 791.142 42 515C42 238.858 265.858 15 542 15C639.935 15 731.293 43.1566 808.422 91.8161C791.761 80.2346 774.384 69.6119 756.37 60.028C753.74 58.4928 751.078 57.1092 748.392 55.873C678.304 20.1458 598.945 0 514.881 0C230.52 0 0 230.52 0 514.881C0 799.243 230.52 1029.76 514.881 1029.76C595.49 1029.76 671.772 1011.24 739.703 978.216C746.63 975.864 753.457 972.593 760.052 968.331L766.102 964.422C779.344 957.006 792.225 949.022 804.711 940.502Z" fill="#8D99AF"/>
<path fill-rule="evenodd" clip-rule="evenodd" d="M541 115.207C326.103 122.069 154 298.436 154 515C154 731.564 326.103 907.931 541 914.793C536.684 914.931 532.35 915 528 915C307.086 915 128 735.914 128 515C128 294.086 307.086 115 528 115C532.35 115 536.684 115.069 541 115.207Z" fill="#B2B2B2"/>
<g clip-path="url(#clip0_9_34)">
<path d="M922.552 359.301C902.409 311.67 873.579 268.884 836.859 232.153C800.114 195.434 757.319 166.589 709.71 146.448C660.396 125.586 608.002 115.002 553.999 115.002C500.007 115.002 447.616 125.585 398.299 146.448C350.668 166.589 307.883 195.435 271.15 232.153C234.432 268.884 205.587 311.67 185.445 359.301C164.585 408.618 154 461.01 154 515.001C154 569.002 164.583 621.396 185.446 670.712C205.587 718.321 234.434 761.116 271.152 797.836C307.883 834.58 350.668 863.411 398.301 883.552C447.618 904.403 500.009 914.998 554.001 914.998C608.004 914.998 660.398 904.403 709.712 883.552C757.321 863.409 800.116 834.579 836.861 797.836C873.58 761.116 902.411 718.319 922.554 670.712C943.404 621.396 954 569.002 954 515.001C953.998 461.01 943.403 408.618 922.552 359.301Z" fill="#ED5564"/>
<path d="M154.159 526.231C155.527 576.254 166.024 624.815 185.446 670.712C205.587 718.321 234.434 761.116 271.152 797.836C307.883 834.58 350.668 863.411 398.301 883.552C447.618 904.403 500.009 914.998 554.001 914.998C608.004 914.998 660.398 904.403 709.712 883.552C757.321 863.409 800.116 834.579 836.861 797.836C873.58 761.116 902.411 718.319 922.554 670.712C941.989 624.815 952.486 576.254 953.853 526.231H154.159Z" fill="#E6E9ED"/>
<path d="M952.094 554.405C953.363 541.367 953.998 528.232 953.998 515.001C953.998 500.132 953.192 485.386 951.606 470.798C931.732 473.862 903.192 477.854 867.232 481.82C798.967 489.352 689.252 498.336 553.999 498.336C418.758 498.336 309.03 489.352 240.779 481.82C204.806 477.853 176.277 473.862 156.405 470.798C154.806 485.386 154 500.133 154 515.001C154 528.232 154.634 541.369 155.905 554.405C220.797 564.171 363.766 581.65 553.999 581.65C744.233 581.65 887.2 564.171 952.094 554.405Z" fill="#434A54"/>
<path d="M637.349 531.662C637.349 577.693 600.018 614.999 553.999 614.999C507.979 614.999 470.662 577.693 470.662 531.662C470.662 485.641 507.979 448.336 553.999 448.336C600.018 448.338 637.349 485.642 637.349 531.662Z" fill="#E6E9ED"/>
<path d="M553.999 381.664C471.284 381.664 404 448.961 404 531.664C404 614.366 471.286 681.649 553.999 681.649C636.713 681.649 703.997 614.365 703.997 531.664C703.997 448.961 636.714 381.664 553.999 381.664ZM553.999 598.35C517.245 598.35 487.336 568.418 487.336 531.664C487.336 494.908 517.243 465.001 553.999 465.001C590.767 465.001 620.648 494.908 620.648 531.664C620.648 568.416 590.767 598.35 553.999 598.35Z" fill="#434A54"/>
<path opacity="0.2" d="M922.552 359.301C902.409 311.67 873.579 268.884 836.859 232.153C800.114 195.434 757.319 166.589 709.71 146.448C660.396 125.586 608.002 115.002 553.999 115.002C548.421 115.002 542.866 115.123 537.336 115.344C585.445 117.297 632.123 127.735 676.362 146.448C724.017 166.589 766.791 195.435 803.508 232.153C840.228 268.884 869.087 311.67 889.225 359.301C910.099 408.618 920.646 461.01 920.646 515.002C920.646 569.004 910.099 621.398 889.225 670.713C869.085 718.322 840.228 761.117 803.508 797.837C766.791 834.582 724.017 863.413 676.362 883.554C632.123 902.256 585.444 912.705 537.336 914.658C542.866 914.878 548.419 915 553.999 915C608.002 915 660.396 904.404 709.71 883.554C757.319 863.411 800.114 834.58 836.859 797.837C873.579 761.117 902.409 718.321 922.552 670.713C943.403 621.398 953.998 569.004 953.998 515.002C953.998 461.01 943.403 408.618 922.552 359.301Z" fill="white"/>
<path opacity="0.1" d="M185.446 670.712C205.587 718.321 234.434 761.116 271.152 797.836C307.883 834.58 350.668 863.411 398.301 883.552C447.618 904.403 500.009 914.998 554.001 914.998C559.579 914.998 565.134 914.877 570.664 914.656C522.555 912.703 475.864 902.253 431.625 883.552C383.994 863.409 341.221 834.579 304.49 797.836C267.76 761.116 238.926 718.319 218.772 670.712C197.909 621.398 187.338 569.004 187.338 515.001C187.338 461.009 197.909 408.616 218.771 359.299C238.924 311.668 267.758 268.881 304.489 232.164C341.22 195.434 383.993 166.587 431.624 146.446C475.863 127.733 522.553 117.295 570.662 115.342C565.132 115.123 559.578 115.002 553.999 115.002C500.007 115.002 447.616 125.585 398.299 146.448C350.668 166.589 307.883 195.435 271.15 232.166C234.432 268.884 205.587 311.67 185.445 359.301C164.585 408.618 154 461.01 154 515.001C154 569.002 164.585 621.398 185.446 670.712Z" fill="black"/>
</g>
<defs>
<clipPath id="clip0_9_34">
<rect width="800" height="800" fill="white" transform="translate(154 115)"/>
</clipPath>
</defs>
</svg>
