<svg width="2703" height="2703" viewBox="0 0 2703 2703" fill="none" xmlns="http://www.w3.org/2000/svg">
<path fill-rule="evenodd" clip-rule="evenodd" d="M0 0H2703V2703H0V0ZM2272 1351.5C2272 1859.88 1859.88 2272 1351.5 2272C843.122 2272 431 1859.88 431 1351.5C431 843.122 843.122 431 1351.5 431C1859.88 431 2272 843.122 2272 1351.5ZM1329.2 1840.14C1330.51 1840.15 1331.83 1840.15 1333 1840.94H1371C1375.65 1839.74 1380.4 1839.62 1385.14 1839.49H1385.15C1387.54 1839.43 1389.93 1839.36 1392.31 1839.16C1492.1 1830.83 1580.9 1795.37 1658.69 1732.78C1739.58 1667.45 1794.47 1584.88 1823.35 1485.09C1833.39 1450.46 1839.37 1414.77 1841.16 1378.76C1841.23 1377.33 1841.47 1375.9 1841.71 1374.47L1841.8 1373.94C1841.84 1373.72 1841.88 1373.5 1841.91 1373.28C1841.94 1373.14 1841.96 1373 1841.98 1372.86C1842 1372.72 1842.02 1372.59 1842.04 1372.45V1330.45C1840.9 1325.86 1840.74 1321.18 1840.58 1316.5V1316.5C1840.51 1314.22 1840.43 1311.94 1840.24 1309.68C1835.81 1256.6 1823.51 1205.39 1801.64 1156.88C1741.34 1023.09 1641.67 932.707 1502.64 885.74C1466.92 873.67 1430.05 866.91 1392.45 863.74C1357.9 860.775 1323.14 861.563 1288.76 866.09C1205.73 877.09 1130.06 906.9 1062.66 956.64C972.72 1023.08 912.083 1109.93 880.75 1217.19C870.655 1251.83 864.661 1287.53 862.89 1323.56C862.692 1325.53 862.395 1327.48 862 1329.42V1372.42C863.153 1376.94 863.299 1381.54 863.444 1386.15C863.514 1388.34 863.583 1390.52 863.76 1392.7C867.23 1434.81 875.49 1475.98 890.39 1515.46C946.72 1664.6 1050.36 1765.47 1201.51 1817.04C1242.49 1831.03 1284.88 1838.21 1328.15 1840.12C1328.5 1840.14 1328.85 1840.14 1329.2 1840.14H1329.2ZM943.72 1382.69H1039.72C1046.22 1382.69 1052.72 1382.69 1059.22 1382.7H1059.23H1059.27C1085.25 1382.71 1111.23 1382.72 1137.24 1382.53C1141.14 1382.51 1142.39 1383.94 1142.97 1387.38C1157.54 1473.65 1225.18 1542.75 1311.12 1559.23C1423.55 1580.79 1531.47 1511.55 1558.55 1400.55C1559.65 1396.04 1560.47 1391.46 1561.18 1386.87C1561.66 1383.73 1562.94 1382.56 1566.36 1382.56C1631.69 1382.76 1697.03 1382.76 1762.36 1382.56C1767.59 1382.55 1767.34 1385.04 1767.02 1388.3C1767.01 1388.44 1766.99 1388.58 1766.98 1388.72C1763.53 1424.41 1756.57 1459.42 1743.65 1492.89C1692.52 1625.27 1598.87 1712.19 1462.65 1752.52C1416.31 1766.26 1368.56 1769.9 1320.31 1766.19C1237.63 1759.84 1163.16 1731.57 1097.83 1680.77C1017.76 1618.5 966.763 1537.87 944.83 1438.89C941.413 1422.81 938.869 1406.55 937.21 1390.19C936.37 1382.69 936.38 1382.69 943.72 1382.69ZM1352 1498.09C1271.26 1498.09 1205.13 1432.01 1205.09 1351.37C1205.05 1270.75 1271.09 1204.74 1352 1204.78C1432.91 1204.82 1499.01 1270.77 1498.94 1351.43C1498.87 1432.09 1432.74 1498.09 1352 1498.09ZM1352 2183C1538.23 2183 1710.17 2121.81 1848.81 2018.45L1805.38 1965.99C1678.56 2059.64 1521.75 2115 1352 2115C1114.62 2115 902.533 2006.74 762.404 1836.91L701.184 1869.38C853.627 2060.52 1088.51 2183 1352 2183ZM557.632 1599.14L618.863 1566.66C598.776 1498.27 588 1425.89 588 1351C588 1129.72 682.073 930.412 832.408 790.888L788.977 738.434C623.622 890.495 520 1108.65 520 1351C520 1437.42 533.177 1520.77 557.632 1599.14ZM2184 1351C2184 1593.35 2080.38 1811.51 1915.02 1963.57L1871.59 1911.11C2021.93 1771.59 2116 1572.28 2116 1351C2116 929.054 1773.95 587 1352 587C1182.25 587 1025.44 642.358 898.62 736.006L855.188 683.552C993.831 580.186 1165.77 519 1352 519C1811.5 519 2184 891.499 2184 1351ZM1934 1351.5C1934 1140.43 1821.74 955.582 1653.67 853.404L1689.06 769.514C1889.34 885.856 2024 1102.7 2024 1351C2024 1722.14 1723.14 2023 1352 2023C980.865 2023 680 1722.14 680 1351C680 979.865 980.865 679 1352 679C1414.49 679 1474.99 687.531 1532.4 703.491L1497.03 787.328C1450.52 775.363 1401.75 769 1351.5 769C1029.79 769 769 1029.79 769 1351.5C769 1673.21 1029.79 1934 1351.5 1934C1673.21 1934 1934 1673.21 1934 1351.5Z" fill="white"/>
</svg>
