<svg width="2703" height="2703" viewBox="0 0 2703 2703" fill="none" xmlns="http://www.w3.org/2000/svg">
<path fill-rule="evenodd" clip-rule="evenodd" d="M2703 0H0V2703H2703V0ZM1351.5 2272C1859.88 2272 2272 1859.88 2272 1351.5C2272 843.122 1859.88 431 1351.5 431C843.122 431 431 843.122 431 1351.5C431 1859.88 843.122 2272 1351.5 2272Z" fill="white"/>
<path fill-rule="evenodd" clip-rule="evenodd" d="M1352 2023C1723.14 2023 2024 1722.14 2024 1351C2024 979.865 1723.14 679 1352 679C980.865 679 680 979.865 680 1351C680 1722.14 980.865 2023 1352 2023ZM1351.5 1934C1673.21 1934 1934 1673.21 1934 1351.5C1934 1029.79 1673.21 769 1351.5 769C1029.79 769 769 1029.79 769 1351.5C769 1673.21 1029.79 1934 1351.5 1934Z" fill="white"/>
<g clip-path="url(#clip0_17_12)">
<path d="M1371 1840.94H1333C1331.51 1839.94 1329.79 1840.2 1328.15 1840.12C1284.88 1838.21 1242.49 1831.03 1201.51 1817.04C1050.36 1765.47 946.72 1664.6 890.39 1515.46C875.49 1475.98 867.23 1434.81 863.76 1392.7C863.21 1385.94 863.7 1379.08 862 1372.42V1329.42C862.395 1327.48 862.692 1325.53 862.89 1323.56C864.661 1287.53 870.655 1251.83 880.75 1217.19C912.083 1109.93 972.72 1023.08 1062.66 956.64C1130.06 906.9 1205.73 877.09 1288.76 866.09C1323.14 861.563 1357.9 860.775 1392.45 863.74C1430.05 866.91 1466.92 873.67 1502.64 885.74C1641.67 932.707 1741.34 1023.09 1801.64 1156.88C1823.51 1205.39 1835.81 1256.6 1840.24 1309.68C1840.82 1316.6 1840.34 1323.63 1842.04 1330.45V1372.45C1841.74 1374.55 1841.26 1376.65 1841.16 1378.76C1839.37 1414.77 1833.39 1450.46 1823.35 1485.09C1794.47 1584.88 1739.58 1667.45 1658.69 1732.78C1580.9 1795.37 1492.1 1830.83 1392.31 1839.16C1385.21 1839.76 1378 1839.14 1371 1840.94ZM1039.72 1382.69H943.72C936.38 1382.69 936.37 1382.69 937.21 1390.19C938.869 1406.55 941.413 1422.81 944.83 1438.89C966.763 1537.87 1017.76 1618.5 1097.83 1680.77C1163.16 1731.57 1237.63 1759.84 1320.31 1766.19C1368.56 1769.9 1416.31 1766.26 1462.65 1752.52C1598.87 1712.19 1692.52 1625.27 1743.65 1492.89C1756.57 1459.42 1763.53 1424.41 1766.98 1388.72C1767.31 1385.26 1767.81 1382.55 1762.36 1382.56C1697.03 1382.76 1631.69 1382.76 1566.36 1382.56C1562.94 1382.56 1561.66 1383.73 1561.18 1386.87C1560.47 1391.46 1559.65 1396.04 1558.55 1400.55C1531.47 1511.55 1423.55 1580.79 1311.12 1559.23C1225.18 1542.75 1157.54 1473.65 1142.97 1387.38C1142.39 1383.94 1141.14 1382.51 1137.24 1382.53C1104.71 1382.77 1072.21 1382.69 1039.72 1382.69ZM1205.09 1351.37C1205.13 1432.01 1271.26 1498.09 1352 1498.09C1432.74 1498.09 1498.87 1432.09 1498.94 1351.43C1499.01 1270.77 1432.91 1204.82 1352 1204.78C1271.09 1204.74 1205.05 1270.75 1205.09 1351.37Z" fill="white"/>
</g>
<defs>
<clipPath id="clip0_17_12">
<rect width="980" height="978.94" fill="white" transform="translate(862 862)"/>
</clipPath>
</defs>
</svg>
