<svg width="1386" height="1030" viewBox="0 0 1386 1030" fill="none" xmlns="http://www.w3.org/2000/svg">
<path fill-rule="evenodd" clip-rule="evenodd" d="M659.269 960.851C727.279 995.477 804.268 1015 885.817 1015C1161.96 1015 1385.82 791.142 1385.82 515C1385.82 238.858 1161.96 15 885.817 15C771.428 15 666.011 53.4124 581.761 118.042L83.4662 439.439C28.5378 474.868 28.5031 555.186 83.4008 590.662L588.804 917.263C605.705 929.763 623.421 941.222 641.858 951.548L643.719 952.75C648.785 956.024 653.989 958.714 659.269 960.851Z" fill="#EDF0F0"/>
<path fill-rule="evenodd" clip-rule="evenodd" d="M41.2174 439.321L557.831 106.108C580.312 88.8623 604.257 73.4294 629.447 60.0278C632.077 58.4928 634.739 57.1094 637.424 55.8732C707.513 20.146 786.871 0 870.935 0C1155.3 0 1385.82 230.52 1385.82 514.881C1385.82 514.901 1385.82 514.921 1385.82 514.941C1385.78 238.826 1161.94 15 885.817 15C771.428 15 666.011 53.4124 581.761 118.042L83.4662 439.439C28.5379 474.868 28.5031 555.186 83.4008 590.662L588.804 917.263C605.705 929.763 623.421 941.222 641.858 951.548L643.719 952.75C648.785 956.024 653.989 958.714 659.269 960.851C727.279 995.477 804.268 1015 885.817 1015C1159.28 1015 1381.47 795.463 1385.75 523.019C1381.41 803.627 1152.58 1029.76 870.935 1029.76C790.327 1029.76 714.045 1011.24 646.114 978.216C639.187 975.864 632.36 972.593 625.764 968.331L619.713 964.421C600.729 953.789 582.487 941.989 565.085 929.119L41.1522 590.543C-13.7456 555.067 -13.7109 474.749 41.2174 439.321Z" fill="#8D99AF"/>
<path fill-rule="evenodd" clip-rule="evenodd" d="M882 130.207C667.103 137.069 495 313.436 495 530C495 746.564 667.103 922.931 882 929.793C877.684 929.931 873.35 930 869 930C648.086 930 469 750.914 469 530C469 309.086 648.086 130 869 130C873.35 130 877.684 130.069 882 130.207Z" fill="#B2B2B2"/>
<g clip-path="url(#clip0_9_35)">
<path d="M1263.55 374.301C1243.41 326.67 1214.58 283.884 1177.86 247.153C1141.11 210.434 1098.32 181.589 1050.71 161.448C1001.4 140.586 949.002 130.001 894.999 130.001C841.007 130.001 788.616 140.585 739.299 161.448C691.668 181.589 648.882 210.435 612.15 247.153C575.432 283.884 546.587 326.67 526.445 374.301C505.585 423.618 495 476.01 495 530.001C495 584.002 505.583 636.396 526.446 685.711C546.587 733.321 575.433 776.116 612.152 812.836C648.882 849.58 691.668 878.411 739.301 898.552C788.618 919.403 841.008 929.998 895.001 929.998C949.004 929.998 1001.4 919.403 1050.71 898.552C1098.32 878.409 1141.12 849.579 1177.86 812.836C1214.58 776.116 1243.41 733.319 1263.55 685.711C1284.4 636.396 1295 584.002 1295 530.001C1295 476.01 1284.4 423.618 1263.55 374.301Z" fill="#ED5564"/>
<path d="M495.159 541.231C496.526 591.254 507.024 639.815 526.446 685.712C546.587 733.321 575.433 776.116 612.152 812.836C648.882 849.58 691.668 878.411 739.301 898.552C788.618 919.403 841.008 929.998 895.001 929.998C949.004 929.998 1001.4 919.403 1050.71 898.552C1098.32 878.409 1141.12 849.579 1177.86 812.836C1214.58 776.116 1243.41 733.319 1263.55 685.712C1282.99 639.815 1293.49 591.254 1294.85 541.231H495.159Z" fill="#E6E9ED"/>
<path d="M1293.09 569.405C1294.36 556.367 1295 543.232 1295 530.001C1295 515.132 1294.19 500.386 1292.61 485.798C1272.73 488.862 1244.19 492.854 1208.23 496.82C1139.97 504.352 1030.25 513.336 894.999 513.336C759.758 513.336 650.029 504.352 581.779 496.82C545.806 492.853 517.277 488.862 497.405 485.798C495.806 500.386 495 515.133 495 530.001C495 543.232 495.634 556.369 496.905 569.405C561.797 579.171 704.765 596.65 894.999 596.65C1085.23 596.65 1228.2 579.171 1293.09 569.405Z" fill="#434A54"/>
<path d="M978.348 546.662C978.348 592.693 941.018 629.999 894.999 629.999C848.979 629.999 811.662 592.693 811.662 546.662C811.662 500.641 848.979 463.336 894.999 463.336C941.018 463.338 978.348 500.642 978.348 546.662Z" fill="#E6E9ED"/>
<path d="M894.999 396.664C812.284 396.664 744.999 463.961 744.999 546.664C744.999 629.366 812.286 696.649 894.999 696.649C977.712 696.649 1045 629.365 1045 546.664C1045 463.961 977.714 396.664 894.999 396.664ZM894.999 613.35C858.245 613.35 828.336 583.418 828.336 546.664C828.336 509.908 858.243 480.001 894.999 480.001C931.767 480.001 961.648 509.908 961.648 546.664C961.648 583.416 931.767 613.35 894.999 613.35Z" fill="#434A54"/>
<path opacity="0.2" d="M1263.55 374.301C1243.41 326.67 1214.58 283.884 1177.86 247.153C1141.11 210.434 1098.32 181.589 1050.71 161.448C1001.4 140.586 949.002 130.001 894.999 130.001C889.421 130.001 883.866 130.123 878.336 130.344C926.445 132.297 973.123 142.735 1017.36 161.448C1065.02 181.589 1107.79 210.435 1144.51 247.153C1181.23 283.884 1210.09 326.67 1230.22 374.301C1251.1 423.618 1261.65 476.01 1261.65 530.002C1261.65 584.004 1251.1 636.398 1230.22 685.713C1210.08 733.322 1181.23 776.117 1144.51 812.837C1107.79 849.582 1065.02 878.412 1017.36 898.554C973.123 917.256 926.444 927.704 878.336 929.658C883.866 929.878 889.419 930 894.999 930C949.002 930 1001.4 919.404 1050.71 898.554C1098.32 878.411 1141.11 849.58 1177.86 812.837C1214.58 776.117 1243.41 733.321 1263.55 685.713C1284.4 636.398 1295 584.004 1295 530.002C1295 476.01 1284.4 423.618 1263.55 374.301Z" fill="white"/>
<path opacity="0.1" d="M526.446 685.711C546.587 733.321 575.433 776.116 612.152 812.836C648.882 849.58 691.668 878.411 739.301 898.552C788.618 919.403 841.008 929.998 895.001 929.998C900.579 929.998 906.134 929.876 911.664 929.656C863.554 927.703 816.864 917.253 772.625 898.552C724.994 878.409 682.221 849.579 645.49 812.836C608.759 776.116 579.926 733.319 559.772 685.711C538.909 636.398 528.338 584.004 528.338 530.001C528.338 476.008 538.909 423.616 559.77 374.299C579.924 326.668 608.758 283.881 645.489 247.164C682.219 210.434 724.993 181.587 772.624 161.446C816.862 142.733 863.553 132.295 911.662 130.342C906.132 130.123 900.577 130.001 894.999 130.001C841.007 130.001 788.616 140.585 739.299 161.448C691.668 181.589 648.882 210.435 612.15 247.166C575.432 283.884 546.587 326.67 526.445 374.301C505.585 423.618 495 476.01 495 530.001C495 584.002 505.585 636.398 526.446 685.711Z" fill="black"/>
</g>
<defs>
<clipPath id="clip0_9_35">
<rect width="800" height="800" fill="white" transform="translate(495 130)"/>
</clipPath>
</defs>
</svg>
