<svg width="1772" height="1532" viewBox="0 0 1772 1532" fill="none" xmlns="http://www.w3.org/2000/svg">
<path fill-rule="evenodd" clip-rule="evenodd" d="M539.812 151.985C856.725 177.344 1106 442.561 1106 766C1106 1089.31 856.922 1354.45 540.188 1379.98L691.797 1531.59L1771.5 765.797L691.797 0L539.812 151.985Z" fill="white"/>
<g clip-path="url(#clip0_24_61)">
<path d="M509 1255.94H471C469.51 1254.94 467.79 1255.2 466.15 1255.12C422.88 1253.21 380.49 1246.03 339.51 1232.04C188.36 1180.47 84.72 1079.6 28.39 930.46C13.49 890.98 5.23001 849.81 1.76001 807.7C1.21001 800.94 1.7 794.08 0 787.42V744.42C0.394975 742.483 0.692033 740.527 0.890015 738.56C2.6607 702.527 8.65504 666.826 18.75 632.19C50.0833 524.93 110.72 438.08 200.66 371.64C268.06 321.9 343.73 292.09 426.76 281.09C461.137 276.563 495.903 275.775 530.45 278.74C568.05 281.91 604.92 288.67 640.64 300.74C779.673 347.707 879.34 438.087 939.64 571.88C961.51 620.39 973.81 671.6 978.24 724.68C978.82 731.6 978.34 738.63 980.04 745.45V787.45C979.74 789.55 979.26 791.65 979.16 793.76C977.371 829.774 971.394 865.458 961.35 900.09C932.47 999.883 877.583 1082.45 796.69 1147.78C718.897 1210.37 630.103 1245.83 530.31 1254.16C523.21 1254.76 516 1254.14 509 1255.94ZM177.72 797.69H81.72C74.38 797.69 74.37 797.69 75.21 805.19C76.8693 821.549 79.413 837.806 82.83 853.89C104.763 952.87 155.763 1033.5 235.83 1095.77C301.16 1146.57 375.63 1174.84 458.31 1181.19C506.56 1184.9 554.31 1181.26 600.65 1167.52C736.87 1127.19 830.52 1040.27 881.65 907.89C894.57 874.42 901.53 839.41 904.98 803.72C905.31 800.26 905.81 797.55 900.36 797.56C835.027 797.76 769.693 797.76 704.36 797.56C700.94 797.56 699.66 798.73 699.18 801.87C698.47 806.46 697.65 811.04 696.55 815.55C669.47 926.55 561.55 995.79 449.12 974.23C363.18 957.75 295.54 888.65 280.97 802.38C280.39 798.94 279.14 797.51 275.24 797.53C242.71 797.77 210.21 797.69 177.72 797.69ZM343.09 766.37C343.13 847.01 409.26 913.09 490 913.09C570.74 913.09 636.87 847.09 636.94 766.43C637.01 685.77 570.91 619.82 490 619.78C409.09 619.74 343.05 685.75 343.09 766.37Z" fill="white"/>
</g>
<defs>
<clipPath id="clip0_24_61">
<rect width="980" height="978.94" fill="white" transform="translate(0 277)"/>
</clipPath>
</defs>
</svg>
